<?xml version="1.0" encoding="UTF-8" standalone="no"?>
<!-- Created with Inkscape (http://www.inkscape.org/) -->

<svg
   xmlns:dc="http://purl.org/dc/elements/1.1/"
   xmlns:cc="http://creativecommons.org/ns#"
   xmlns:rdf="http://www.w3.org/1999/02/22-rdf-syntax-ns#"
   xmlns:svg="http://www.w3.org/2000/svg"
   xmlns="http://www.w3.org/2000/svg"
   version="1.1"
   width="300"
   height="74.990311"
   id="svg8348">
  <defs
     id="defs8350" />
  <metadata
     id="metadata8353">
    <rdf:RDF>
      <cc:Work
         rdf:about="">
        <dc:format>image/svg+xml</dc:format>
        <dc:type
           rdf:resource="http://purl.org/dc/dcmitype/StillImage" />
        <dc:title></dc:title>
      </cc:Work>
    </rdf:RDF>
  </metadata>
  <g
     transform="translate(-224.99999,-494.86703)"
     id="layer1">
    <g
       transform="matrix(4.381401,0,0,4.381401,1580.1958,-4023.0558)"
       id="g8303">
      <path
         d="m -267.294,1035.8219 0,-3.1113 21.785,0 4.67375,4.675 -4.67375,4.67 -12.4475,0 0,-3.1162 10.89625,0 0.77125,-0.7725 c 0.39375,-0.3925 0.39375,-1.1738 0,-1.5638 l -0.77125,-0.7812 -13.2325,0 c -0.38625,0 -0.77875,0.395 -0.77875,0.7812 l 0,5.4525 -7.775,0 -5.45125,-5.4525 c -0.3875,-0.3862 -1.16875,-0.3862 -1.5525,0 l -1.55875,1.5638 c -0.39,0.3875 -0.39,0.7725 0,0.7725 l 2.33375,0 0,3.1162 -12.4475,0 0,-5.4525 c 0,-0.3862 -0.38875,-0.7812 -0.78375,-0.7812 l -0.77375,0 -7.77875,7.7862 -7.78125,-7.7862 -0.7775,0 c -0.38625,0 -0.77375,0.395 -0.77375,0.7812 l 0,5.4525 -3.115,0 0,-9.345 6.2175,0 5.45375,5.4563 c 0.3825,0.3875 1.16875,0.3812 1.5525,0 l 5.44375,-5.4563 6.2275,0 0,5.4563 c 0,0.3875 0.3875,0.7725 0.775,0.7725 l 0.77875,0 7.7825,-7.78 7.78125,7.78 2.34,0 c 0.3825,0 0.77625,-0.385 0.77625,-0.7725 l 0,-2.345 -3.11625,0"
         id="path2995"
         style="fill:#000000;fill-opacity:1;fill-rule:nonzero;stroke:none" />
      <path
         d="m -258.02889,1043.6085 c 0.8,0 1.45625,0.6613 1.45625,1.4638 l -1.45625,0 c 0,-0.175 -0.12875,-0.2963 -0.2875,-0.2963 l -1.17125,0 c -0.1625,0 -0.29375,0.1213 -0.29375,0.2963 0,0.1625 0.13125,0.2862 0.29375,0.2862 l 1.45875,0 c 0.8,0 1.45625,0.6588 1.45625,1.46 0,0.8038 -0.65625,1.4538 -1.45625,1.4538 l -1.7525,0 c -0.8075,0 -1.4575,-0.65 -1.4575,-1.4538 l 1.4575,0 c 0,0.1625 0.13125,0.2938 0.29375,0.2938 l 1.17125,0 c 0.15875,0 0.2875,-0.1313 0.2875,-0.2938 0,-0.1625 -0.12875,-0.2937 -0.2875,-0.2937 l -1.465,0 c -0.8075,0 -1.4575,-0.6438 -1.4575,-1.4525 0,-0.8025 0.65,-1.4638 1.4575,-1.4638 l 1.7525,0"
         id="path2999"
         style="fill:#000000;fill-opacity:1;fill-rule:nonzero;stroke:none" />
      <path
         d="m -290.15163,1046.8188 c 0,0.1625 -0.13125,0.2937 -0.29,0.2937 l -1.16625,0 c -0.16375,0 -0.2925,-0.1312 -0.2925,-0.2937 l 0,-1.7475 c 0,-0.1725 0.12875,-0.2988 0.2925,-0.2988 l 1.16625,0 c 0.15875,0 0.29,0.1263 0.29,0.2988 L -290.15163,1046.8188 z m 1.4575,-1.7475 c 0,-0.8038 -0.65375,-1.4625 -1.4575,-1.4625 l -1.74875,0 c -0.81125,0 -1.4625,0.6587 -1.4625,1.4625 l 0,1.7475 c 0,0.8037 0.65125,1.4562 1.4625,1.4562 l 1.74875,0 c 0.80375,0 1.4575,-0.6525 1.4575,-1.4562 l 0,-1.7475"
         id="path3003"
         style="fill:#000000;fill-opacity:1;fill-rule:nonzero;stroke:none" />
      <path
         d="m -272.73911,1046.8188 c 0,0.8037 -0.65875,1.4562 -1.4625,1.4562 l -1.74875,0 c -0.8075,0 -1.45625,-0.6525 -1.45625,-1.4562 l 0,-3.21 1.45625,0 0,3.21 c 0,0.1625 0.13375,0.2937 0.2925,0.2937 l 1.17,0 c 0.15875,0 0.28625,-0.1312 0.28625,-0.2937 l 0,-3.21 1.4625,0 0,3.21"
         id="path3007"
         style="fill:#000000;fill-opacity:1;fill-rule:nonzero;stroke:none" />
      <path
         d="m -245.69475,1043.6085 4.07875,0 0,1.1675 -2.625,0 0,0.5825 2.625,0 0,1.1663 -2.625,0 0,0.5875 2.625,0 0,1.16 -4.07875,0 L -245.69475,1043.6085 Z"
         id="path3011"
         style="fill:#000000;fill-opacity:1;fill-rule:nonzero;stroke:none" />
      <path
         d="m -309.30551,1043.6085 1.46125,0 0,1.75 1.7475,0 0,-1.75 1.45625,0 0,4.6638 -1.45625,0 0,-1.7475 -1.7475,0 0,1.7475 -1.46125,0 L -309.30551,1043.6085 Z"
         id="path3015"
         style="fill:#000000;fill-opacity:1;fill-rule:nonzero;stroke:none" />
      <path
         d="m -243.27687,1041.2768 -0.28375,0 0,-0.1813 0.7775,0 0,0.1813 -0.28625,0 0,0.7812 -0.2075,0 L -243.27687,1041.2768 Z"
         id="path3019"
         style="fill:#000000;fill-opacity:1;fill-rule:nonzero;stroke:none" />
      <path
         d="m -242.64111,1041.095 0.29875,0 0.22,0.6613 0.21,-0.6613 0.29375,0 0,0.96 -0.1925,0 0,-0.6762 -0.006,0 -0.23125,0.6762 -0.16,0 -0.22375,-0.6737 -0.01,0 0,0.6737 -0.19875,0 L -242.64111,1041.095 Z"
         id="path3023"
         style="fill:#000000;fill-opacity:1;fill-rule:nonzero;stroke:none" />
      <path
         d="m -267.294,1035.8219 0,-3.1113 21.785,0 4.67375,4.675 -4.67375,4.67 -12.4475,0 0,-3.1162 10.89625,0 0.77125,-0.7725 c 0.39375,-0.3925 0.39375,-1.1738 0,-1.5638 l -0.77125,-0.7812 -13.2325,0 c -0.38625,0 -0.77875,0.395 -0.77875,0.7812 l 0,5.4525 -7.775,0 -5.45125,-5.4525 c -0.3875,-0.3862 -1.16875,-0.3862 -1.5525,0 l -1.55875,1.5638 c -0.39,0.3875 -0.39,0.7725 0,0.7725 l 2.33375,0 0,3.1162 -12.4475,0 0,-5.4525 c 0,-0.3862 -0.38875,-0.7812 -0.78375,-0.7812 l -0.77375,0 -7.77875,7.7862 -7.78125,-7.7862 -0.7775,0 c -0.38625,0 -0.77375,0.395 -0.77375,0.7812 l 0,5.4525 -3.115,0 0,-9.345 6.2175,0 5.45375,5.4563 c 0.3825,0.3875 1.16875,0.3812 1.5525,0 l 5.44375,-5.4563 6.2275,0 0,5.4563 c 0,0.3875 0.3875,0.7725 0.775,0.7725 l 0.77875,0 7.7825,-7.78 7.78125,7.78 2.34,0 c 0.3825,0 0.77625,-0.385 0.77625,-0.7725 l 0,-2.345 -3.11625,0"
         id="path3027"
         style="fill:#000000;fill-opacity:1;fill-rule:nonzero;stroke:none" />
      <path
         d="m -258.02889,1043.6085 c 0.8,0 1.45625,0.6613 1.45625,1.4638 l -1.45625,0 c 0,-0.175 -0.12875,-0.2963 -0.2875,-0.2963 l -1.17125,0 c -0.1625,0 -0.29375,0.1213 -0.29375,0.2963 0,0.1625 0.13125,0.2862 0.29375,0.2862 l 1.45875,0 c 0.8,0 1.45625,0.6588 1.45625,1.46 0,0.8038 -0.65625,1.4538 -1.45625,1.4538 l -1.7525,0 c -0.8075,0 -1.4575,-0.65 -1.4575,-1.4538 l 1.4575,0 c 0,0.1625 0.13125,0.2938 0.29375,0.2938 l 1.17125,0 c 0.15875,0 0.2875,-0.1313 0.2875,-0.2938 0,-0.1625 -0.12875,-0.2937 -0.2875,-0.2937 l -1.465,0 c -0.8075,0 -1.4575,-0.6438 -1.4575,-1.4525 0,-0.8025 0.65,-1.4638 1.4575,-1.4638 l 1.7525,0"
         id="path3031"
         style="fill:#000000;fill-opacity:1;fill-rule:nonzero;stroke:none" />
      <path
         d="m -290.15163,1046.8188 c 0,0.1625 -0.13125,0.2937 -0.29,0.2937 l -1.16625,0 c -0.16375,0 -0.2925,-0.1312 -0.2925,-0.2937 l 0,-1.7475 c 0,-0.1725 0.12875,-0.2988 0.2925,-0.2988 l 1.16625,0 c 0.15875,0 0.29,0.1263 0.29,0.2988 L -290.15163,1046.8188 z m 1.4575,-1.7475 c 0,-0.8038 -0.65375,-1.4625 -1.4575,-1.4625 l -1.74875,0 c -0.81125,0 -1.4625,0.6587 -1.4625,1.4625 l 0,1.7475 c 0,0.8037 0.65125,1.4562 1.4625,1.4562 l 1.74875,0 c 0.80375,0 1.4575,-0.6525 1.4575,-1.4562 l 0,-1.7475"
         id="path3035"
         style="fill:#000000;fill-opacity:1;fill-rule:nonzero;stroke:none" />
      <path
         d="m -272.73911,1046.8188 c 0,0.8037 -0.65875,1.4562 -1.4625,1.4562 l -1.74875,0 c -0.8075,0 -1.45625,-0.6525 -1.45625,-1.4562 l 0,-3.21 1.45625,0 0,3.21 c 0,0.1625 0.13375,0.2937 0.2925,0.2937 l 1.17,0 c 0.15875,0 0.28625,-0.1312 0.28625,-0.2937 l 0,-3.21 1.4625,0 0,3.21"
         id="path3039"
         style="fill:#000000;fill-opacity:1;fill-rule:nonzero;stroke:none" />
      <path
         d="m -245.69475,1043.6085 4.07875,0 0,1.1675 -2.625,0 0,0.5825 2.625,0 0,1.1663 -2.625,0 0,0.5875 2.625,0 0,1.16 -4.07875,0 L -245.69475,1043.6085 Z"
         id="path3043"
         style="fill:#000000;fill-opacity:1;fill-rule:nonzero;stroke:none" />
      <path
         d="m -309.30551,1043.6085 1.46125,0 0,1.75 1.7475,0 0,-1.75 1.45625,0 0,4.6638 -1.45625,0 0,-1.7475 -1.7475,0 0,1.7475 -1.46125,0 L -309.30551,1043.6085 Z"
         id="path3047"
         style="fill:#000000;fill-opacity:1;fill-rule:nonzero;stroke:none" />
      <path
         d="m -243.27687,1041.2768 -0.28375,0 0,-0.1813 0.7775,0 0,0.1813 -0.28625,0 0,0.7812 -0.2075,0 L -243.27687,1041.2768 Z"
         id="path3051"
         style="fill:#000000;fill-opacity:1;fill-rule:nonzero;stroke:none" />
      <path
         d="m -242.64111,1041.095 0.29875,0 0.22,0.6613 0.21,-0.6613 0.29375,0 0,0.96 -0.1925,0 0,-0.6762 -0.006,0 -0.23125,0.6762 -0.16,0 -0.22375,-0.6737 -0.01,0 0,0.6737 -0.19875,0 L -242.64111,1041.095 Z"
         id="path3055"
         style="fill:#000000;fill-opacity:1;fill-rule:nonzero;stroke:none" />
    </g>
  </g>
</svg>
